<svg width="253" height="67" viewBox="0 0 253 67" fill="none" xmlns="http://www.w3.org/2000/svg">
<g clip-path="url(#clip0_24_75)">
<path d="M127.064 19.0758C127.064 16.6134 128.26 15.5977 130.591 15.8439L141.088 16.9289C143.135 17.1444 144.186 15.8824 144.186 13.2276V6.09441C144.186 3.43965 143.128 1.93144 141.088 1.65442L130.092 0.16929C125.246 -0.484781 121.512 0.869531 119.005 3.8167L112.786 7.81038L99.1757 5.78661C97.7802 5.33261 96.2773 5.10176 94.667 5.11715L94.575 5.10176C94.4907 5.08637 94.4063 5.10176 94.322 5.12484C93.7622 5.14023 93.1948 5.17871 92.6044 5.25566C81.9001 6.58689 75.0911 15.9593 75.0911 31.1877V35.1583C75.0911 35.5738 75.2981 35.8046 75.6431 35.7816C75.9882 35.7585 76.2029 35.4968 76.2029 35.0813V31.103C76.2029 16.6673 82.5979 7.84886 92.6044 6.62536C102.611 5.40186 109.006 13.2199 109.006 28.6406V31.0338C109.006 31.9187 108.799 32.2034 108.101 32.2496L100.594 32.7574C99.8965 32.8036 99.6895 32.5574 99.6895 31.6878V29.3409C99.6895 21.6844 96.906 17.6984 92.6044 18.1216C88.2951 18.5448 85.5193 22.9618 85.5193 30.4028V32.6882C85.5193 33.5346 85.3123 33.804 84.6145 33.8501L79.1243 34.2272C78.7793 34.2503 78.5723 34.5119 78.5723 34.9351C78.5723 35.3583 78.7793 35.5892 79.1243 35.5661L84.6145 35.2044C86.0024 35.1121 86.6311 34.3965 86.6311 32.6112V30.3258C86.6311 23.7159 88.9928 19.8453 92.6044 19.499C96.2159 19.1528 98.5776 22.6617 98.5776 29.4332V31.7802C98.5776 33.6039 99.2064 34.258 100.594 34.1656L108.101 33.6731C109.489 33.5808 110.118 32.8344 110.118 30.9645V28.5637C110.118 18.0601 107.304 10.8807 102.45 7.44872L111.306 8.76456L109.113 10.1727C108.845 10.342 108.768 10.7037 108.937 10.973C109.044 11.1423 109.236 11.2423 109.42 11.2423C109.527 11.2423 109.635 11.2116 109.727 11.15L113.039 9.02619L114.143 9.18778C114.143 9.18778 114.197 9.18778 114.228 9.18778C114.511 9.18778 114.757 8.98002 114.795 8.6953C114.833 8.43368 114.688 8.20283 114.465 8.0951L117.394 6.21753C115.953 8.98771 115.209 12.5966 115.209 16.875C115.209 38.8903 134.233 39.9368 134.233 47.0316C134.233 49.4555 133.037 50.5405 130.706 50.4635L119.357 50.0865C117.31 50.0172 116.26 51.4331 116.26 54.2418V60.4362C116.26 60.921 116.474 61.2134 116.819 61.2134C117.164 61.2134 117.387 60.9287 117.387 60.4439V54.2648C117.387 52.3334 117.954 51.5793 119.357 51.6178L130.706 51.964C133.382 52.0487 135.36 50.7098 135.36 47.0778C135.36 38.1362 116.336 38.5594 116.336 16.9828C116.336 11.05 117.916 6.51763 120.937 3.93212L123.115 2.53164C125.047 1.63133 127.363 1.30814 130.077 1.66981L141.073 3.12415C142.484 3.30883 143.043 4.1168 143.043 5.9482V13.0968C143.043 14.9282 142.476 15.6054 141.073 15.4515L130.575 14.328C127.899 14.0433 125.921 15.2591 125.921 18.9604C125.921 28.0712 144.945 28.102 144.945 48.4628C144.945 58.2354 140.153 64.5992 131.204 64.553L116.827 64.4837C116.474 64.4837 116.267 64.7685 116.267 65.2532C116.267 65.738 116.482 66.0304 116.827 66.0304L131.204 66.0612C140.858 66.0766 146.072 59.1665 146.072 48.509C146.072 27.8327 127.048 26.2706 127.048 19.0758H127.064Z" fill="black"/>
<path d="M175.118 51.9409L162.788 51.5254C162.504 51.5177 162.366 51.333 162.366 50.9867V8.40285C162.366 5.84812 161.308 4.38608 159.269 4.10906L153.771 3.36265C153.418 3.31648 153.104 3.32417 152.812 3.36265C152.674 3.278 152.513 3.24722 152.344 3.30109L145.466 5.45568C145.16 5.54802 144.991 5.87121 145.091 6.179C145.167 6.42524 145.397 6.58684 145.643 6.58684C145.696 6.58684 145.758 6.57914 145.811 6.56375L150.972 4.94781C150.78 5.47876 150.673 6.12514 150.673 6.91002V62.129C150.673 63.3756 150.918 64.3298 151.394 64.9916H143.964C143.649 64.9916 143.388 65.2532 143.388 65.5687C143.388 65.8842 143.649 66.1458 143.964 66.1458H155.12C155.189 66.1458 155.251 66.1304 155.312 66.1073L177.656 66.1535C178.009 66.1535 178.216 65.8996 178.216 65.4764C178.216 65.0531 178.001 64.7992 177.656 64.7915L153.763 64.6761C152.352 64.6761 151.792 63.9451 151.792 62.1444V7.05623C151.792 5.25561 152.36 4.60923 153.763 4.79391L159.261 5.51724C160.672 5.70192 161.231 6.4868 161.231 8.24895V50.9406C161.231 52.2641 161.653 52.8951 162.78 52.9259L175.11 53.3029C176.521 53.3491 177.081 54.0416 177.081 55.7499V61.198C177.081 61.6212 177.296 61.8828 177.648 61.8828C178.001 61.8828 178.208 61.6366 178.208 61.2057V55.7653C178.208 53.3029 177.15 51.9948 175.11 51.9255L175.118 51.9409Z" fill="black"/>
<path d="M215.021 40.891C215.021 40.4986 214.806 40.2524 214.454 40.2293C214.101 40.2062 213.886 40.4293 213.886 40.8141V44.5692C213.886 58.1739 207.399 65.7381 197.255 65.7073C187.11 65.6765 180.623 57.4583 180.623 42.7532V40.4755C180.623 39.6291 180.838 39.3905 181.536 39.4367L189.15 39.9138C189.855 39.9599 190.062 40.2216 190.062 41.0449V43.2765C190.062 50.5559 192.884 54.6881 197.247 54.8112C201.618 54.9343 204.432 51.0946 204.432 44.0614V41.8991C204.432 41.0988 204.647 40.8756 205.344 40.9141L210.911 41.2604C211.264 41.2835 211.479 41.0603 211.479 40.6679C211.479 40.2754 211.264 40.0215 210.911 39.9984L205.344 39.6368C203.934 39.5444 203.297 40.1446 203.297 41.8298V43.9921C203.297 50.2481 200.905 53.6185 197.24 53.5031C193.574 53.3876 191.182 49.7633 191.182 43.3303V41.1065C191.182 39.3751 190.545 38.6749 189.135 38.5825L181.52 38.0824C180.11 37.99 179.473 38.6287 179.473 40.4063V42.6917C179.473 54.8035 183.644 62.7678 190.591 65.7227H181.091C180.777 65.7227 180.516 65.9843 180.516 66.2998C180.516 66.6153 180.777 66.8769 181.091 66.8769H195.024C195.737 66.9616 196.473 67.0077 197.224 67.0077C208.074 67.0077 214.983 58.9819 214.983 44.6308V40.891H215.021Z" fill="black"/>
<path d="M249.902 36.4818L240.034 35.6738C237.986 35.5045 236.936 36.5279 236.936 38.6671V43.3918C236.936 43.7612 237.151 43.992 237.503 44.0151C237.856 44.0382 238.071 43.8305 238.071 43.4611V38.7518C238.071 37.282 238.638 36.7357 240.041 36.8434L249.91 37.6206C251.321 37.7284 251.88 38.3439 251.88 39.7598V63.1679C251.88 64.5838 251.313 65.1532 249.91 65.1455L237.718 65.0839C226.515 65.0301 220.381 57.5352 220.381 44.1459V34.4503C220.381 25.7088 222.996 19.8453 227.926 17.2367L231.2 16.0594C231.2 16.0594 231.2 16.0594 231.208 16.0594C233.14 15.6438 235.31 15.5823 237.718 15.8978L249.135 17.406C250.546 17.5906 251.106 18.237 251.106 19.6606V25.2087C251.106 26.6322 250.546 27.1401 249.135 26.9862L237.718 25.7704C232.289 25.1933 229.828 28.6098 229.828 35.2198V44.6846C229.828 51.2946 232.297 55.0574 237.718 55.219L240.892 55.319C242.02 55.3498 242.441 54.8573 242.441 53.7646V48.3859C242.441 47.2932 242.02 46.7622 240.892 46.7007L237.511 46.5237C237.158 46.5083 236.944 46.7161 236.944 47.0854C236.944 47.4548 237.158 47.6856 237.511 47.701L240.892 47.8703C241.176 47.8857 241.314 48.0396 241.314 48.332V53.7339C241.314 54.0263 241.176 54.1648 240.892 54.1571L237.718 54.0494C232.995 53.8878 230.955 50.602 230.955 44.7538V35.3121C230.955 29.4717 233.002 26.4552 237.718 26.9477L249.135 28.1327C251.183 28.3482 252.233 27.394 252.233 25.3395V19.8145C252.233 17.7599 251.175 16.5518 249.135 16.2748L237.718 14.7281C233.271 14.1279 229.575 14.7281 226.684 16.4672L215.688 20.4224C215.389 20.5301 215.236 20.861 215.343 21.1611C215.428 21.3997 215.65 21.5459 215.888 21.5459C215.949 21.5459 216.018 21.5382 216.079 21.5151L223.985 18.6756C220.887 22.0153 219.262 27.3171 219.262 34.381V44.0998C219.262 55.0112 223.141 62.2368 230.342 65.007H209.669C209.355 65.007 209.094 65.2686 209.094 65.5841C209.094 65.8996 209.355 66.1612 209.669 66.1612H235.364C236.123 66.2382 236.913 66.2766 237.726 66.2766L249.918 66.2997C251.965 66.2997 253.015 65.2455 253.015 63.191V39.8522C253.015 37.7976 251.957 36.6511 249.918 36.4895L249.902 36.4818Z" fill="black"/>
<path d="M81.394 64.9916H69.8999V12.4966C69.8999 11.958 69.8386 11.4963 69.7312 11.0884L77.031 13.043C77.077 13.0583 77.1307 13.066 77.1767 13.066C77.4297 13.066 77.6598 12.8967 77.7288 12.6351C77.8131 12.3273 77.6291 12.0118 77.3224 11.9272L68.8034 9.64178C68.3127 9.2955 67.6609 9.16469 66.8328 9.26473L61.4116 9.93419C59.395 10.1804 58.3522 11.5117 58.3522 13.8201V30.749C58.3522 31.0722 58.2142 31.2415 57.9381 31.2569L48.6984 31.9725C48.4223 31.9956 48.2843 31.8494 48.2843 31.5339V14.9744C48.2843 14.4357 48.223 13.974 48.108 13.5739L55.9982 15.69C56.0442 15.7054 56.0978 15.7131 56.1438 15.7131C56.3969 15.7131 56.6269 15.5438 56.6959 15.2822C56.7803 14.9744 56.5963 14.6589 56.2895 14.5742L46.4364 11.9349C46.3597 11.9118 46.283 11.9118 46.2063 11.9195C45.9073 11.881 45.5852 11.8656 45.2172 11.9195L39.796 12.5889C37.7794 12.8352 36.7366 14.1049 36.7366 16.3133V62.8909C36.7366 65.0993 37.7794 66.2382 39.796 66.2382H45.2172C45.5009 66.2305 45.7693 66.1997 46.0146 66.1536H53.0154C53.3298 66.1536 53.5905 65.8919 53.5905 65.5764C53.5905 65.2609 53.3298 64.9993 53.0154 64.9993H47.7476C48.085 64.4453 48.269 63.7142 48.269 62.7909V45.4541C48.269 45.1386 48.407 44.977 48.6831 44.9616L57.9228 44.5076C58.1988 44.4922 58.3368 44.6461 58.3368 44.9693V62.6985C58.3368 65.0147 59.3797 66.2074 61.3963 66.2074H65.8437C66.1887 66.1997 66.4034 65.9535 66.4034 65.5456C66.4034 65.1378 66.1964 64.8993 65.8437 64.8993L61.3963 64.9224C60.0084 64.9224 59.4487 64.2914 59.4487 62.6908V44.9232C59.4487 43.7227 59.0346 43.1841 57.9228 43.238L48.6831 43.7151C47.5712 43.7689 47.1572 44.3383 47.1572 45.508V62.8062C47.1572 64.3683 46.5974 64.9916 45.2095 64.9993H43.3692L39.543 65.007C39.543 65.007 39.543 65.007 39.5353 65.007C38.3391 64.9377 37.8407 64.3222 37.8407 62.8909V16.1902C37.8407 14.6666 38.4005 13.9894 39.7884 13.8201L45.2095 13.1661C46.5974 12.9968 47.1572 13.5585 47.1572 15.1129V31.634C47.1572 32.8036 47.5712 33.3192 48.6831 33.2345L57.9228 32.542C59.0346 32.4573 59.4487 31.8648 59.4487 30.6644V13.697C59.4487 12.0965 60.0084 11.3885 61.3963 11.2192L66.8175 10.5652C68.2053 10.3959 68.7651 10.9884 68.7651 12.6197V65.5303C68.7651 65.9381 68.9721 66.1843 69.3172 66.1843C69.3862 66.1843 69.4475 66.1689 69.5089 66.1459H81.371C81.6854 66.1459 81.9461 65.8842 81.9461 65.5687C81.9461 65.2532 81.6854 64.9916 81.371 64.9916H81.394Z" fill="black"/>
<path d="M112.211 65.7303H99.0069C105.954 62.6908 110.133 54.311 110.133 41.5142V37.2512C110.133 36.8049 109.926 36.551 109.573 36.5741C109.228 36.5972 109.013 36.8742 109.013 37.3128V41.5681C109.013 56.9888 102.618 65.6072 92.6119 65.6302C82.6054 65.661 76.2105 57.6275 76.2105 43.1994V40.9602C76.2105 40.1292 76.4175 39.8675 77.1153 39.829L84.6221 39.4058C85.3198 39.3674 85.5269 39.6059 85.5269 40.4523V42.7377C85.5269 50.1788 88.3103 54.2494 92.6119 54.134C96.9213 54.0185 99.697 49.6863 99.697 42.0298V39.6828C99.697 38.8133 99.9041 38.5363 100.602 38.4978L106.092 38.19C106.437 38.1669 106.652 37.8899 106.652 37.4513C106.652 37.0127 106.445 36.7588 106.092 36.7818L100.602 37.105C99.2139 37.1897 98.5852 37.9207 98.5852 39.7444V42.0914C98.5852 48.8629 96.2235 52.6642 92.6119 52.772C89.0004 52.8797 86.6387 49.3015 86.6387 42.6916V40.4062C86.6387 38.6286 86.01 37.9823 84.6221 38.0669L77.1153 38.5132C75.7274 38.5979 75.0986 39.2981 75.0986 41.0295V43.261C75.0986 58.4893 81.9077 67.0076 92.6119 67.0076C93.3174 67.0076 93.9998 66.9692 94.6669 66.8845H112.203C112.518 66.8845 112.778 66.6229 112.778 66.3074C112.778 65.9919 112.518 65.7303 112.203 65.7303H112.211Z" fill="black"/>
<path d="M33.8995 18.0985L24.353 15.9208C22.275 15.2591 19.9133 15.0436 17.3063 15.3668L3.05946 17.1212C1.04282 17.3675 0 18.5448 0 20.5686V63.2448C0 65.2686 1.04282 66.3151 3.05946 66.3074H7.5068C7.85186 66.2997 8.06655 66.0842 8.06655 65.7303C8.06655 65.3763 7.85952 65.1609 7.5068 65.1609L3.05946 65.1839C1.67159 65.1839 1.11184 64.6299 1.11184 63.2371V20.4301C1.11184 19.0296 1.67159 18.4063 3.05946 18.237L17.3063 16.521C26.615 15.3976 32.6649 21.5381 32.6649 30.5797C32.6649 39.6213 26.6227 46.7699 17.3063 47.2085L16.3325 47.2547H15.9874C15.9874 47.2547 15.9261 47.2701 15.8877 47.2778C15.2206 47.3009 15.0136 47.0931 15.0136 46.3775V38.5671C15.0136 37.8438 15.2206 37.6129 15.9184 37.5667L17.3063 37.4667C21.3396 37.182 23.3485 34.7581 23.3485 31.3569C23.3485 27.9557 21.3319 25.8704 17.3063 26.2628L11.9541 26.7784C10.8423 26.8861 10.4282 27.4248 10.4282 28.5021V65.7072C10.4282 65.7149 10.4282 65.7226 10.4282 65.738C10.4282 65.8688 10.4819 65.9842 10.5586 66.0842C10.5663 66.0996 10.5739 66.115 10.5893 66.1304C10.6966 66.2458 10.8423 66.3151 11.011 66.3151H32.9026C33.217 66.3151 33.4777 66.0535 33.4777 65.738C33.4777 65.4225 33.217 65.1609 32.9026 65.1609H11.5324V28.402C11.5324 28.1173 11.6704 27.9557 11.9465 27.9326L17.2986 27.4248C20.7031 27.1016 22.229 28.7252 22.229 31.4492C22.229 34.1733 20.7031 36.0508 17.2986 36.2971L15.9107 36.3971C14.4539 36.5048 13.8941 37.1974 13.8941 38.6363V46.4313C13.8941 47.8703 14.4462 48.5013 15.9107 48.432L16.4782 48.4089H30.9704C31.2847 48.4089 31.5454 48.1473 31.5454 47.8318C31.5454 47.5163 31.2847 47.2547 30.9704 47.2547H22.8731C29.6362 44.7384 33.7691 38.2747 33.7691 30.4874C33.7691 25.1086 31.7985 20.6917 28.3633 18.0138L33.6464 19.222C33.6924 19.2296 33.7308 19.2373 33.7768 19.2373C34.0375 19.2373 34.2752 19.0527 34.3365 18.791C34.4055 18.4832 34.2138 18.1677 33.9071 18.0985H33.8995Z" fill="black"/>
<path d="M166.216 16.6596C166.262 16.6596 166.315 16.6596 166.361 16.6442L185.776 11.4732C181.789 14.9975 179.512 21.3689 179.512 30.3181V34.3887C179.512 34.812 179.726 35.0813 180.071 35.1044C180.416 35.1275 180.639 34.8889 180.639 34.4657V30.4105C180.639 15.7054 187.126 8.37979 197.27 9.7418C207.415 11.1038 213.902 19.5529 213.902 33.1576V35.266C213.902 36.0509 213.687 36.2663 212.989 36.2125L205.375 35.643C204.67 35.5892 204.463 35.3352 204.463 34.5349V32.3727C204.463 25.3318 201.641 21.1072 197.278 20.6379C192.907 20.1608 190.093 23.9082 190.093 31.1876V33.4192C190.093 34.2502 189.879 34.4811 189.181 34.4272L183.614 34.0117C183.261 33.9886 183.054 34.2195 183.054 34.6427C183.054 35.0659 183.269 35.3275 183.614 35.3583L189.181 35.7584C190.592 35.8585 191.228 35.2429 191.228 33.5115V31.2877C191.228 24.8547 193.62 21.5613 197.286 21.946C200.951 22.3307 203.343 26.032 203.343 32.288V34.4503C203.343 36.1355 203.98 36.8204 205.391 36.9204L213.005 37.4667C214.416 37.5668 215.052 36.9896 215.052 35.3506V33.2422C215.052 18.8988 208.143 9.91878 197.293 8.43365C194.149 8.00273 191.335 8.3567 188.92 9.44939L166.093 15.5284C165.786 15.613 165.602 15.9285 165.687 16.2363C165.756 16.498 165.986 16.6673 166.239 16.6673L166.216 16.6596Z" fill="black"/>
</g>
<defs>
<clipPath id="clip0_24_75">
<rect width="253" height="67" fill="white"/>
</clipPath>
</defs>
</svg>
