<svg width="241" height="64" viewBox="0 0 241 64" fill="none" xmlns="http://www.w3.org/2000/svg">
<g opacity="0.6">
<g clip-path="url(#clip0_10_71)">
<path d="M16.4205 34.6865C19.6507 34.4513 21.0985 32.6578 21.0985 30.0558C21.0985 27.4537 19.6507 25.9028 16.4205 26.2115L11.3423 26.6967C11.0803 26.7187 10.9494 26.8731 10.9494 27.145V62.7798C10.9494 63.1253 10.753 63.3311 10.4183 63.3311C10.0836 63.3311 9.89447 63.1253 9.89447 62.7872V27.2479C9.89447 26.2262 10.2873 25.7043 11.3423 25.6014L16.4205 25.109C20.2473 24.7341 22.1534 26.7334 22.1534 29.9749C22.1534 33.2165 20.24 35.5392 16.4205 35.8112L15.1036 35.9067C14.4416 35.9508 14.2451 36.1713 14.2451 36.8623V44.3229C14.2451 45.0139 14.4416 45.2123 15.1036 45.1829L16.4205 45.1168C25.2527 44.6978 30.993 37.8693 30.993 29.2325C30.993 20.5958 25.26 14.7302 16.4205 15.8033L2.90286 17.4425C1.58603 17.6042 1.05492 18.1996 1.05492 19.5374V60.4203C1.05492 61.7581 1.58603 62.2873 2.90286 62.28L7.12256 62.2579C7.44995 62.2579 7.65366 62.4564 7.65366 62.8019C7.65366 63.1473 7.45723 63.3458 7.12256 63.3458H2.90286C0.989447 63.3531 0 62.3608 0 60.4277V19.6403C0 17.7071 0.989447 16.5898 2.90286 16.3473L16.4205 14.6714C25.9148 13.4953 32.0479 19.8093 32.0479 29.1296C32.0479 38.45 25.9148 45.793 16.4205 46.2193L15.1036 46.2781C13.7213 46.3369 13.1902 45.7416 13.1902 44.367V36.9211C13.1902 35.5465 13.714 34.885 15.1036 34.7821L16.4205 34.6865Z" fill="black"/>
<path d="M58.2754 63.2356C56.362 63.2356 55.3725 62.0962 55.3725 59.8838V42.9484C55.3725 42.6397 55.2416 42.5001 54.9797 42.5074L46.2129 42.9411C45.951 42.9558 45.82 43.1101 45.82 43.4115V59.972C45.82 62.133 44.8306 63.2576 42.9171 63.2576H37.7735C35.8601 63.2723 34.8706 62.1845 34.8706 60.0749V15.5902C34.8706 13.4806 35.8601 12.2678 37.7735 12.0326L42.9171 11.3931C44.8306 11.1579 45.82 12.1502 45.82 14.3186V30.1367C45.82 30.438 45.951 30.5703 46.2129 30.5556L54.9797 29.8721C55.2416 29.85 55.3725 29.6883 55.3725 29.3869V13.216C55.3725 11.0036 56.362 9.73929 58.2754 9.50407L63.4191 8.86459C65.3325 8.62938 66.3219 9.68048 66.3219 11.9444V62.6034C66.3219 62.993 66.1255 63.2282 65.7908 63.2282C65.4562 63.2282 65.267 62.993 65.267 62.6034V12.0547C65.267 10.4964 64.7359 9.93775 63.4191 10.0921L58.2754 10.7169C56.9585 10.8786 56.4274 11.5548 56.4274 13.0837V29.2914C56.4274 30.438 56.0346 31.004 54.9797 31.0849L46.2129 31.7464C45.1579 31.8273 44.7651 31.3348 44.7651 30.2175V14.4362C44.7651 12.9514 44.234 12.4148 42.9171 12.5765L37.7735 13.2013C36.4566 13.363 35.9255 14.0099 35.9255 15.4653V60.0675C35.9255 61.5229 36.4566 62.1036 37.7735 62.0962L42.9171 62.0742C44.234 62.0742 44.7651 61.4715 44.7651 59.9793V43.4556C44.7651 42.3383 45.1579 41.7944 46.2129 41.743L54.9797 41.2872C56.0346 41.2358 56.4274 41.7503 56.4274 42.897V59.8691C56.4274 61.398 56.9585 62.008 58.2754 62.0007L62.4951 61.9786C62.8225 61.9786 63.0262 62.2065 63.0262 62.5961C63.0262 62.9856 62.8298 63.2209 62.4951 63.2209H58.2754V63.2356Z" fill="black"/>
<path d="M82.2114 31.1363C82.2114 32.8343 81.6148 33.5252 80.2979 33.6134L75.0888 33.9589C74.7614 33.9809 74.565 33.7531 74.565 33.3561C74.565 32.9592 74.7614 32.702 75.0888 32.6799L80.2979 32.3197C80.96 32.2756 81.1564 32.0184 81.1564 31.2098V29.0268C81.1564 21.9189 83.7974 17.6998 87.8789 17.2955C91.9603 16.8912 94.6013 20.6987 94.6013 28.0124V30.2543C94.6013 31.0849 94.7977 31.3201 95.4598 31.276L102.582 30.7909C103.244 30.7467 103.441 30.4748 103.441 29.6295V27.3435C103.441 12.6133 97.3732 5.14528 87.8789 6.31399C78.3845 7.48271 72.3169 15.9063 72.3169 29.6956V33.4958C72.3169 33.8927 72.1205 34.1426 71.7858 34.1647C71.4511 34.1867 71.262 33.9589 71.262 33.5693V29.7765C71.262 15.23 77.7225 6.27724 87.8789 5.00562C98.0352 3.734 104.496 11.6577 104.496 27.27V29.5633C104.496 31.3421 103.899 32.0625 102.582 32.1507L95.4598 32.6211C94.1429 32.7093 93.5463 32.0845 93.5463 30.3425V28.1006C93.5463 21.6322 91.3055 18.2805 87.8789 18.6112C84.4522 18.942 82.2114 22.6392 82.2114 28.9532V31.1363ZM93.5463 37.9649C93.5463 36.2228 94.1429 35.5245 95.4598 35.4437L100.669 35.1349C100.996 35.1129 101.2 35.3555 101.2 35.7744C101.2 36.1934 101.004 36.458 100.669 36.4801L95.4598 36.7741C94.7977 36.8108 94.6013 37.0755 94.6013 37.906V40.1479C94.6013 47.4616 91.9603 51.6072 87.8789 51.7101C83.7974 51.813 81.1564 47.932 81.1564 40.8242V38.6411C81.1564 37.8325 80.96 37.6047 80.2979 37.6414L73.1754 38.0457C72.5133 38.0825 72.3169 38.3324 72.3169 39.1262V41.2652C72.3169 55.0545 78.3845 62.721 87.8789 62.6916C97.3732 62.6622 103.441 54.4371 103.441 39.7069V35.6421C103.441 35.2158 103.637 34.9512 103.972 34.9365C104.307 34.9218 104.503 35.157 104.503 35.5833V39.6554C104.503 55.2677 98.0425 64.0073 87.8861 64.0073C77.7297 64.0073 71.2692 55.8631 71.2692 41.324V39.1924C71.2692 37.5312 71.8658 36.8623 73.1827 36.7888L80.3052 36.3625C81.6221 36.2816 82.2186 36.899 82.2186 38.597V40.7801C82.2186 47.0941 84.4594 50.512 87.8861 50.4091C91.3128 50.3062 93.5536 46.6751 93.5536 40.2067V37.9649H93.5463Z" fill="black"/>
<path d="M110.331 51.7984C110.331 49.1155 111.335 47.763 113.27 47.8292L124.037 48.1894C126.242 48.2629 127.384 47.2338 127.384 44.9111C127.384 38.134 109.334 37.127 109.334 16.1048C109.334 5.27032 114.281 -1.10248 123.441 0.147091L133.874 1.56572C135.816 1.83033 136.813 3.27836 136.813 5.8069V12.6207C136.813 15.1566 135.809 16.3621 133.874 16.1563L123.914 15.1199C121.709 14.892 120.567 15.8549 120.567 18.207C120.567 25.0797 138.617 26.5718 138.617 46.3224C138.617 56.5027 133.67 63.1033 124.51 63.0886L110.869 63.0592C110.534 63.0592 110.338 62.7799 110.338 62.3168C110.338 61.8538 110.542 61.5818 110.869 61.5818L124.51 61.648C133.001 61.6921 137.548 55.6059 137.548 46.2783C137.548 26.8291 119.498 26.7997 119.498 18.0968C119.498 14.5612 121.367 13.3999 123.914 13.6718L133.874 14.745C135.212 14.892 135.743 14.2452 135.743 12.4958V5.68195C135.743 3.93255 135.205 3.16076 133.874 2.98435L123.441 1.59512C114.951 0.463158 110.403 6.32878 110.403 16.2224C110.403 36.833 128.454 36.4287 128.454 44.9699C128.454 48.4393 126.584 49.7182 124.037 49.6374L113.27 49.3066C111.931 49.2625 111.4 49.9902 111.4 51.8352V57.7375C111.4 58.2006 111.196 58.4726 110.862 58.4726C110.527 58.4726 110.331 58.1859 110.331 57.7302V51.8131V51.7984Z" fill="black"/>
<path d="M166.154 49.6226C168.097 49.6887 169.094 50.9383 169.094 53.2904V58.4872C169.094 58.8914 168.89 59.134 168.563 59.134C168.235 59.134 168.024 58.8841 168.024 58.4798V53.2757C168.024 51.6513 167.486 50.9824 166.154 50.9383L154.456 50.5781C153.386 50.5487 152.986 49.946 152.986 48.6817V7.88696C152.986 6.20372 152.448 5.45398 151.116 5.27757L145.9 4.58663C144.561 4.41022 144.03 5.02765 144.03 6.74765V59.3619C144.03 61.0819 144.569 61.7728 145.9 61.7802L168.57 61.8904C168.905 61.8904 169.101 62.1403 169.101 62.5446C169.101 62.9489 168.897 63.1914 168.57 63.1914L145.9 63.1473C143.957 63.1473 142.961 61.8463 142.961 59.3472V6.60799C142.961 4.10885 143.965 2.95484 145.9 3.21945L151.116 3.93244C153.059 4.19706 154.056 5.59363 154.056 8.03397V48.7185C154.056 49.0566 154.187 49.2257 154.456 49.233L166.154 49.6299V49.6226Z" fill="black"/>
<path d="M181.418 32.0111C181.418 33.6649 180.814 34.2529 179.475 34.1574L174.194 33.7751C173.859 33.7531 173.662 33.4958 173.662 33.0916C173.662 32.6873 173.866 32.4668 174.194 32.4888L179.475 32.8857C180.145 32.9372 180.341 32.7167 180.341 31.9228V29.7912C180.341 22.8377 183.019 19.2581 187.158 19.7138C191.298 20.1695 193.975 24.2049 193.975 30.9232V32.9887C193.975 33.7531 194.179 33.9957 194.841 34.0471L202.065 34.591C202.735 34.6425 202.931 34.4293 202.931 33.6869V31.6729C202.931 18.6774 196.776 10.6067 187.151 9.30564C177.526 8.00462 171.371 15.0022 171.371 29.0488V32.9225C171.371 33.3268 171.167 33.5546 170.832 33.5326C170.498 33.5105 170.301 33.2533 170.301 32.849V28.9606C170.301 14.0687 176.856 6.63744 187.151 8.06342C197.446 9.4894 204.001 18.06 204.001 31.7611V33.7751C204.001 35.3408 203.397 35.8921 202.058 35.7965L194.834 35.2746C193.495 35.1791 192.891 34.5249 192.891 32.9151V30.8497C192.891 24.8738 190.621 21.3383 187.144 20.9707C183.666 20.6032 181.396 23.7492 181.396 29.8941V32.0184L181.418 32.0111ZM192.913 39.9495C192.913 38.3398 193.517 37.7664 194.856 37.8546L200.137 38.2001C200.472 38.2221 200.676 38.4574 200.676 38.8396C200.676 39.2218 200.472 39.4276 200.137 39.4056L194.856 39.0748C194.186 39.0307 193.99 39.2512 193.99 40.0156V42.0811C193.99 48.8067 191.312 52.4672 187.173 52.3496C183.033 52.232 180.356 48.2849 180.356 41.3314V39.1998C180.356 38.4059 180.152 38.1633 179.49 38.1192L172.266 37.6635C171.596 37.6194 171.4 37.8473 171.4 38.6558V40.8315C171.4 54.8782 177.555 62.7284 187.18 62.7578C196.805 62.7872 202.96 55.5618 202.96 42.5662V38.9792C202.96 38.6044 203.164 38.3986 203.499 38.4206C203.833 38.4427 204.037 38.6779 204.037 39.0527V42.625C204.037 56.3262 197.482 64 187.187 64C176.893 64 170.338 55.6647 170.338 40.7727V38.5897C170.338 36.8917 170.942 36.2816 172.28 36.3698L179.505 36.8476C180.843 36.9358 181.447 37.6047 181.447 39.2586V41.3828C181.447 47.5278 183.717 50.9898 187.195 51.1001C190.672 51.2103 192.942 47.9908 192.942 42.015V39.9495H192.913Z" fill="black"/>
<path d="M224.808 36.9431C224.808 34.8997 225.812 33.9221 227.747 34.0838L237.111 34.8556C239.053 35.0173 240.05 36.1125 240.05 38.0677V60.3615C240.05 62.3241 239.046 63.3311 237.111 63.3311L225.543 63.309C214.244 63.287 208.024 55.6867 208.024 42.1252V32.8416C208.024 19.2801 214.244 12.5398 225.543 14.076L236.376 15.5534C238.318 15.818 239.315 16.9721 239.315 18.9346V24.2122C239.315 26.1748 238.311 27.0862 236.376 26.8804L225.543 25.7484C221.061 25.278 219.126 28.1594 219.126 33.7383V42.7573C219.126 48.3363 221.069 51.4822 225.543 51.6366L228.555 51.7395C228.824 51.7468 228.955 51.6145 228.955 51.3352V46.1752C228.955 45.8959 228.824 45.7489 228.555 45.7342L225.347 45.5725C225.012 45.5578 224.808 45.3373 224.808 44.9845C224.808 44.6316 225.012 44.4332 225.347 44.4479L228.555 44.6169C229.624 44.6757 230.025 45.1829 230.025 46.2267V51.3646C230.025 52.4084 229.624 52.8788 228.555 52.8494L225.543 52.7538C220.392 52.5921 218.057 49.0051 218.057 42.6911V33.6501C218.057 27.3361 220.399 24.0652 225.543 24.6238L236.376 25.7852C237.715 25.9322 238.246 25.4397 238.246 24.0873V18.7876C238.246 17.4278 237.715 16.8177 236.376 16.6339L225.543 15.1933C214.914 13.7746 209.093 20.1327 209.093 32.9224V42.184C209.093 54.9737 214.914 62.133 225.543 62.1844L237.111 62.2432C238.449 62.2432 238.981 61.714 238.981 60.3542V37.9942C238.981 36.6418 238.442 36.0537 237.111 35.9508L227.747 35.2084C226.409 35.1055 225.878 35.62 225.878 37.0313V41.5298C225.878 41.8826 225.674 42.0811 225.339 42.059C225.005 42.037 224.801 41.8164 224.801 41.4636V36.9505L224.808 36.9431Z" fill="black"/>
<path d="M10.4329 62.8019H31.204" stroke="black" stroke-width="1.5" stroke-miterlimit="10" stroke-linecap="round"/>
<path d="M65.9146 62.6328H77.2277" stroke="black" stroke-width="1.5" stroke-miterlimit="10" stroke-linecap="round"/>
<path d="M87.8789 63.3384H106.467" stroke="black" stroke-width="1.5" stroke-miterlimit="10" stroke-linecap="round"/>
<path d="M198.922 62.6328H223.331" stroke="black" stroke-width="1.5" stroke-miterlimit="10" stroke-linecap="round"/>
<path d="M171.858 63.3311H188.992" stroke="black" stroke-width="1.5" stroke-miterlimit="10" stroke-linecap="round"/>
<path d="M136.594 62.6328H147.18" stroke="black" stroke-width="1.5" stroke-miterlimit="10" stroke-linecap="round"/>
<path d="M63.8848 9.40118L73.2263 11.9224" stroke="black" stroke-width="1.5" stroke-miterlimit="10" stroke-linecap="round"/>
<path d="M43.9285 11.9444L53.2773 14.4656" stroke="black" stroke-width="1.5" stroke-miterlimit="10" stroke-linecap="round"/>
<path d="M21.0767 15.3035L32.0406 17.8247" stroke="black" stroke-width="1.5" stroke-miterlimit="10" stroke-linecap="round"/>
<path d="M89.6614 5.40991L108.395 8.21777" stroke="black" stroke-width="1.5" stroke-miterlimit="10" stroke-linecap="round"/>
<path d="M204.823 20.0225L219.17 14.8257" stroke="black" stroke-width="1.5" stroke-miterlimit="10" stroke-linecap="round"/>
<path d="M156.98 15.3623L181.025 9.1145" stroke="black" stroke-width="1.5" stroke-miterlimit="10" stroke-linecap="round"/>
<path d="M103.826 10.173L117.504 1.33044" stroke="black" stroke-width="1.5" stroke-miterlimit="10" stroke-linecap="round"/>
<path d="M138.181 5.74799L144.707 3.68988" stroke="black" stroke-width="1.5" stroke-miterlimit="10" stroke-linecap="round"/>
</g>
</g>
<defs>
<clipPath id="clip0_10_71">
<rect width="240.05" height="64" fill="white"/>
</clipPath>
</defs>
</svg>
